<svg width="104" height="126" viewBox="0 0 104 126" fill="none" xmlns="http://www.w3.org/2000/svg">
<g id="App icon" clip-path="url(#clip0_218_765)">
<g id="Layer 2">
<g id="Layer 2_2">
<path id="Vector" d="M75.9996 68.56C74.9996 68.56 74.0996 68.5 73.1496 68.45L72.2796 68.39L70.2796 68.23L69.3496 68.14C68.6096 68.06 67.8796 67.98 67.1496 67.88L66.4896 67.8C65.5496 67.67 64.6196 67.52 63.6796 67.36C63.4596 67.36 63.2396 67.28 63.0196 67.24C62.2996 67.11 61.5796 66.97 60.8696 66.82L59.9996 66.63C59.3396 66.48 58.6696 66.33 57.9996 66.16L57.1696 65.96C56.5096 65.79 55.8596 65.58 55.1696 65.43C53.8796 65.14 52.6696 64.57 51.3896 64.25C51.1396 64.19 59.4896 68.75 66.5396 72.58C67.5177 73.1026 68.6143 73.3633 69.7229 73.3368C70.8316 73.3104 71.9146 72.9977 72.8666 72.429C73.8187 71.8604 74.6075 71.0552 75.1565 70.0916C75.7055 69.1281 75.9959 68.0389 75.9996 66.93V68.56Z" fill="#E06B00"/>
<path id="Vector_2" d="M45.3996 42.78C48.7155 42.7913 51.9194 41.5809 54.3996 39.38C54.9528 37.0926 55.9766 34.9455 57.4056 33.0757C58.8346 31.2059 60.6376 29.6544 62.6996 28.52L60.1696 21.62C60.0424 21.2748 60.0072 20.9024 60.0675 20.5395C60.1279 20.1765 60.2816 19.8355 60.5137 19.55C60.7457 19.2645 61.048 19.0443 61.391 18.9111C61.7339 18.7778 62.1056 18.7361 62.4696 18.79L74.6196 20.61C76.2148 18.3464 77.4964 15.8773 78.4296 13.27C79.0582 11.4614 79.3957 9.56445 79.4296 7.65C72.0094 3.10089 63.5629 0.49403 54.8696 0.07C53.9996 0 53.0796 0 52.1796 0C51.2796 0 50.3896 0 49.4996 0.07C41.1078 0.504711 32.945 2.95889 25.7049 7.22399C18.4648 11.4891 12.3614 17.439 7.91327 24.5682C3.46517 31.6973 0.803888 39.7949 0.155594 48.1729C-0.4927 56.5508 0.891154 64.9614 4.18955 72.69L4.62955 71.82C4.70955 71.68 4.77955 71.53 4.85955 71.38C5.11955 70.92 5.37955 70.46 5.65955 70.01C5.72955 69.91 5.78955 69.81 5.85955 69.72C6.07955 69.36 6.31955 69.01 6.55955 68.72L6.89955 68.25C7.09955 67.97 7.30955 67.7 7.52955 67.43C7.74955 67.16 7.77955 67.1 7.90955 66.94L8.58955 66.15L8.99955 65.67C9.31955 65.33 9.65289 64.9967 9.99955 64.67C10.0496 64.62 10.0996 64.56 10.1596 64.51C15.5654 59.2462 22.8143 56.3036 30.3596 56.31C31.2896 56.31 32.2096 56.31 33.1196 56.45L38.4596 57.45C39.1296 57.64 39.7896 57.86 40.4596 58.1L41.4596 58.5C41.7796 58.64 42.1096 58.76 42.4596 58.91C42.8096 59.06 43.2396 59.29 43.6296 59.49L44.3096 59.84C44.7096 60.05 45.0896 60.29 45.4796 60.53C45.6596 60.64 45.8396 60.73 46.0196 60.85C46.1097 60.8974 46.1966 60.9509 46.2796 61.01C49.3103 63.0154 52.6188 64.5652 56.0996 65.61L57.2996 65.94L58.1296 66.14C58.7896 66.31 59.4596 66.46 60.1296 66.61L61.0496 66.8C61.7596 66.95 62.4796 67.09 63.1996 67.22C63.4196 67.22 63.6396 67.31 63.8596 67.34C64.7996 67.5 65.7295 67.65 66.6695 67.78L67.3296 67.86C68.0596 67.96 68.7896 68.04 69.5295 68.12L70.4595 68.21L72.4595 68.37L73.3296 68.43L75.4895 68.53C75.5797 68.5313 75.6692 68.5147 75.7528 68.4811C75.8365 68.4476 75.9127 68.3977 75.9769 68.3344C76.0411 68.2711 76.092 68.1957 76.1268 68.1126C76.1616 68.0294 76.1796 67.9401 76.1796 67.85V63.34C76.1825 62.9292 76.1024 62.5221 75.9441 62.1431C75.7858 61.764 75.5526 61.4208 75.2584 61.1341C74.9642 60.8474 74.6152 60.6231 74.2322 60.4746C73.8492 60.3261 73.4401 60.2565 73.0295 60.27H72.7996H72.4696C71.9396 60.27 71.4096 60.35 70.8696 60.35H70.5695C68.8462 60.5864 67.109 60.7067 65.3696 60.71C57.1338 60.7187 49.1182 58.0515 42.5296 53.11C41.5743 52.3592 40.6596 51.5581 39.7896 50.71C38.9314 49.8877 38.2911 48.865 37.9263 47.7339C37.5615 46.6028 37.4836 45.3987 37.6996 44.23C37.8196 42.8 38.4396 41.6 39.6096 41.67H39.7096C39.9523 41.6552 40.1952 41.6962 40.4196 41.79C42.002 42.432 43.6919 42.7679 45.3996 42.78ZM19.0496 27.33L18.6896 28.45C18.6802 28.4714 18.6648 28.4896 18.6453 28.5024C18.6258 28.5152 18.6029 28.522 18.5796 28.522C18.5562 28.522 18.5333 28.5152 18.5138 28.5024C18.4943 28.4896 18.4789 28.4714 18.4696 28.45L18.1196 27.33C18.0775 27.2016 18.0058 27.0848 17.9103 26.9893C17.8147 26.8937 17.698 26.822 17.5696 26.78L16.4596 26.43C16.4304 26.43 16.4024 26.4184 16.3818 26.3978C16.3611 26.3772 16.3496 26.3492 16.3496 26.32C16.3496 26.2908 16.3611 26.2628 16.3818 26.2422C16.4024 26.2216 16.4304 26.21 16.4596 26.21L17.5696 25.86C17.698 25.818 17.8147 25.7463 17.9103 25.6507C18.0058 25.5552 18.0775 25.4384 18.1196 25.31L18.4696 24.19C18.4789 24.1686 18.4943 24.1504 18.5138 24.1376C18.5333 24.1248 18.5562 24.118 18.5796 24.118C18.6029 24.118 18.6258 24.1248 18.6453 24.1376C18.6648 24.1504 18.6802 24.1686 18.6896 24.19L19.0496 25.31C19.0899 25.4377 19.1598 25.5541 19.2536 25.6497C19.3475 25.7453 19.4626 25.8174 19.5896 25.86L20.7096 26.21C20.7387 26.21 20.7667 26.2216 20.7873 26.2422C20.808 26.2628 20.8196 26.2908 20.8196 26.32C20.8196 26.3492 20.808 26.3772 20.7873 26.3978C20.7667 26.4184 20.7387 26.43 20.7096 26.43L19.5896 26.78C19.4626 26.8226 19.3475 26.8947 19.2536 26.9903C19.1598 27.0859 19.0899 27.2023 19.0496 27.33ZM28.8996 44.27L26.5296 45C26.2587 45.0835 26.0123 45.2319 25.8119 45.4324C25.6115 45.6328 25.4631 45.8791 25.3796 46.15L24.6296 48.52C24.612 48.5683 24.5801 48.61 24.538 48.6394C24.496 48.6689 24.4459 48.6847 24.3946 48.6847C24.3432 48.6847 24.2931 48.6689 24.2511 48.6394C24.209 48.61 24.1771 48.5683 24.1596 48.52L23.4096 46.15C23.322 45.8796 23.1711 45.6342 22.9693 45.4341C22.7674 45.234 22.5207 45.0852 22.2496 45L19.8796 44.25C19.8313 44.2325 19.7896 44.2005 19.7601 44.1585C19.7307 44.1164 19.7148 44.0663 19.7148 44.015C19.7148 43.9637 19.7307 43.9136 19.7601 43.8715C19.7896 43.8295 19.8313 43.7975 19.8796 43.78L22.2496 43.03C22.5206 42.9417 22.7669 42.7905 22.9685 42.589C23.1701 42.3874 23.3212 42.141 23.4096 41.87L24.1596 39.5C24.1771 39.4517 24.209 39.41 24.2511 39.3806C24.2931 39.3511 24.3432 39.3353 24.3946 39.3353C24.4459 39.3353 24.496 39.3511 24.538 39.3806C24.5801 39.41 24.612 39.4517 24.6296 39.5L25.3796 41.87C25.4647 42.1411 25.6136 42.3879 25.8136 42.5897C26.0137 42.7915 26.2592 42.9425 26.5296 43.03L28.8996 43.78C28.9561 43.7915 29.0069 43.8221 29.0434 43.8668C29.0799 43.9114 29.0998 43.9673 29.0998 44.025C29.0998 44.0827 29.0799 44.1386 29.0434 44.1832C29.0069 44.2279 28.9561 44.2585 28.8996 44.27ZM38.5896 18.87C38.123 19.0084 37.6972 19.2583 37.3488 19.598C37.0003 19.9377 36.7398 20.3571 36.5896 20.82L35.3196 24.82C35.2955 24.9063 35.2439 24.9824 35.1726 25.0366C35.1013 25.0908 35.0141 25.1201 34.9246 25.1201C34.835 25.1201 34.7478 25.0908 34.6765 25.0366C34.6052 24.9824 34.5536 24.9063 34.5296 24.82L33.2596 20.82C33.1093 20.3571 32.8488 19.9377 32.5004 19.598C32.1519 19.2583 31.7261 19.0084 31.2596 18.87L27.2596 17.6C27.1748 17.5729 27.1008 17.5195 27.0484 17.4476C26.9959 17.3757 26.9676 17.289 26.9676 17.2C26.9676 17.111 26.9959 17.0243 27.0484 16.9524C27.1008 16.8805 27.1748 16.8271 27.2596 16.8L31.2596 15.53C31.7261 15.3916 32.1519 15.1417 32.5004 14.802C32.8488 14.4623 33.1093 14.0429 33.2596 13.58L34.5296 9.58C34.5589 9.49878 34.6126 9.42859 34.6833 9.37897C34.7539 9.32936 34.8382 9.30274 34.9246 9.30274C35.0109 9.30274 35.0952 9.32936 35.1659 9.37897C35.2365 9.42859 35.2902 9.49878 35.3196 9.58L36.5896 13.58C36.7398 14.0429 37.0003 14.4623 37.3488 14.802C37.6972 15.1417 38.123 15.3916 38.5896 15.53L42.5896 16.8C42.6743 16.8271 42.7483 16.8805 42.8007 16.9524C42.8532 17.0243 42.8815 17.111 42.8815 17.2C42.8815 17.289 42.8532 17.3757 42.8007 17.4476C42.7483 17.5195 42.6743 17.5729 42.5896 17.6L38.5896 18.87Z" fill="url(#paint0_linear_218_765)"/>
<path id="Vector_3" d="M60.1296 21.63L62.6596 28.53C63.85 27.8699 65.1158 27.3562 66.4296 27L66.8196 26.9C69.8196 26.1 72.4896 23.59 74.5796 20.62L62.4296 18.8C62.0656 18.7461 61.6939 18.7878 61.351 18.921C61.008 19.0543 60.7057 19.2745 60.4737 19.56C60.2416 19.8455 60.0879 20.1865 60.0275 20.5494C59.9672 20.9124 60.0024 21.2848 60.1296 21.63Z" fill="#E06B00"/>
<path id="Vector_4" d="M104.31 49.8701C104.31 49.6601 104.31 49.4401 104.31 49.2301C104.31 48.7201 104.25 48.2301 104.2 47.6901V47.3201C104.2 47.1301 104.2 46.9401 104.2 46.7401L104 46.0001C104 45.5801 103.9 45.1701 103.84 44.7501C103.844 44.7068 103.844 44.6633 103.84 44.6201C103.84 44.2601 103.73 43.9001 103.67 43.5401C103.67 43.4601 103.67 43.3801 103.67 43.3001C103.67 43.2201 103.6 42.9001 103.56 42.7001V42.5301C103.48 42.1301 103.41 41.7201 103.32 41.3101C103.32 41.2001 103.32 41.0901 103.25 40.9801C103.02 39.9801 102.75 38.8901 102.46 37.8701C102.46 37.8701 102.46 37.8001 102.46 37.7701C102.46 37.2301 102.39 36.6901 102.34 36.1601C102.26 35.3301 102.16 34.5201 102.04 33.7101C101.92 32.9001 101.69 31.8101 101.48 30.8801C100.224 25.5576 97.8882 20.5501 94.6162 16.1686C91.3443 11.7871 87.2064 8.12507 82.4596 5.41006C82.1568 5.23109 81.8112 5.13776 81.4596 5.14006C80.9237 5.15567 80.415 5.37958 80.0415 5.76423C79.6681 6.14887 79.4593 6.66395 79.4596 7.20006V7.28006C79.4596 7.40006 79.4596 7.52006 79.4596 7.65006C79.4257 9.56451 79.0882 11.4615 78.4596 13.2701C77.5264 15.8774 76.2448 18.3464 74.6496 20.6101C72.5596 23.6101 69.8896 26.0901 66.8896 26.8901L66.4996 26.9901C63.5501 27.7753 60.8665 29.3401 58.7304 31.5202C56.5943 33.7003 55.0845 36.4152 54.3596 39.3801C52.4898 41.0376 50.197 42.1441 47.7361 42.5766C45.2751 43.0092 42.7424 42.7507 40.4196 41.8301C40.1952 41.7363 39.9523 41.6952 39.7096 41.7101C41.9096 41.9001 38.3496 43.9301 40.8496 46.7801C41.7753 47.7411 42.8747 48.5181 44.0896 49.0701C44.3396 49.1901 44.4096 49.2401 44.3696 49.2401C51.0596 53.3101 62.0696 56.7701 75.9896 49.5501C88.9896 42.8201 98.1596 49.6401 103.79 59.3801C103.794 59.3168 103.794 59.2533 103.79 59.1901C103.79 58.8801 103.86 58.5801 103.9 58.2701C103.94 57.9601 104 57.4401 104.04 57.0301C104.044 56.9936 104.044 56.9566 104.04 56.9201C104.04 56.7301 104.04 56.5401 104.09 56.3501C104.09 55.6901 104.19 55.0301 104.22 54.3501C104.22 54.2801 104.22 54.2201 104.22 54.1501C104.22 53.4901 104.22 52.8301 104.22 52.1501V52.0901C104.36 51.4001 104.34 50.6301 104.31 49.8701Z" fill="#FF9C41"/>
<path id="Vector_5" d="M75.9996 49.58C62.0796 56.8 51.0696 53.34 44.3796 49.27C44.3796 49.27 44.3796 49.22 44.0996 49.1C42.8847 48.548 41.7853 47.771 40.8596 46.81C38.3596 43.96 41.9196 41.93 39.7196 41.74H39.6196C38.4496 41.67 37.8296 42.87 37.7096 44.3C37.4936 45.4687 37.5715 46.6728 37.9363 47.8039C38.3011 48.935 38.9414 49.9577 39.7996 50.78C40.6696 51.628 41.5843 52.4292 42.5396 53.18C49.1282 58.1214 57.1438 60.7886 65.3796 60.78C67.119 60.7766 68.8562 60.6564 70.5796 60.42H70.8796C71.4196 60.42 71.9496 60.42 72.4796 60.34H72.8096H72.8996C73.3001 60.3334 73.698 60.4057 74.0706 60.5529C74.4432 60.7001 74.7831 60.9192 75.071 61.1978C75.3589 61.4764 75.589 61.809 75.7484 62.1765C75.9077 62.5441 75.993 62.9394 75.9996 63.34V66.93C76.0005 68.046 75.711 69.1431 75.1595 70.1134C74.6079 71.0836 73.8133 71.8936 72.8538 72.4636C71.8943 73.0337 70.803 73.3442 69.6871 73.3646C68.5712 73.385 67.4692 73.1146 66.4896 72.58C59.3896 68.72 54.3696 65.21 55.8896 65.58C52.3407 64.5111 48.9705 62.9204 45.8896 60.86H45.8096C35.2396 57.41 21.8096 62.11 20.7196 77.1C20.1296 85.57 21.4096 90.64 26.4196 98.19C32.0096 106.62 32.8296 121.02 15.5896 125.99C14.8096 125.99 14.0296 126.08 13.2296 126.08C18.3222 126.083 23.3439 124.886 27.8873 122.586C32.4308 120.286 36.368 116.947 39.3796 112.84L40.0696 111.84L40.3696 111.37C40.4896 111.2 40.5996 111.02 40.7196 110.84C40.8396 110.66 40.9696 110.42 41.0996 110.21L41.3196 109.84C41.4696 109.59 41.5996 109.34 41.7396 109.08L41.8896 108.82C41.9996 108.61 42.0996 108.4 42.2096 108.18C42.2521 108.11 42.2889 108.036 42.3196 107.96L42.4096 107.79C42.5596 107.48 42.7096 107.16 42.8496 106.84V106.74C42.9996 106.41 43.1496 106.07 43.2896 105.74C43.4296 105.39 43.5696 105.03 43.6996 104.66L44.0596 103.78C44.4954 101.444 44.4644 99.0449 43.9684 96.721C43.4724 94.3971 42.5212 92.1944 41.1696 90.24V89.88C41.1696 89.88 48.5496 91.29 60.6296 103.7C60.2296 103.76 59.8396 103.84 59.4396 103.89C60.2396 103.78 61.0396 103.65 61.8296 103.5C62.4296 103.38 63.0396 103.26 63.6396 103.12H63.7896L64.2696 103C64.9196 102.84 65.5696 102.67 66.2096 102.49L66.4296 102.43C67.0696 102.25 67.7095 102.05 68.3396 101.84C70.9752 100.974 73.5368 99.8972 75.9996 98.62L76.1096 98.56C76.6896 98.26 77.2496 97.95 77.8096 97.63L78.0195 97.51C78.5895 97.18 79.1496 96.85 79.6996 96.51C80.3496 96.1 80.9896 95.68 81.6196 95.24L81.9996 95C82.6096 94.58 83.2096 94.14 83.7996 93.69C88.8441 89.841 93.1473 85.1074 96.4996 79.72C96.7296 79.35 96.9396 78.98 97.1596 78.61L97.3996 78.21L97.6996 77.67C99.1303 75.1105 100.341 72.4342 101.32 69.67L101.47 69.24C101.73 68.47 101.97 67.69 102.2 66.91C102.26 66.72 102.31 66.52 102.37 66.33C102.58 65.56 102.78 64.79 102.95 64.01C102.95 63.83 103.04 63.64 103.08 63.46C103.27 62.57 103.45 61.67 103.59 60.76C103.59 60.7 103.59 60.64 103.59 60.58C103.64 60.24 103.67 59.9 103.72 59.58C98.2096 49.67 88.9996 42.85 75.9996 49.58Z" fill="#FFDDBD"/>
<path id="Vector_6" d="M26.4596 98.2C21.4596 90.65 20.1696 85.58 20.7596 77.11C21.7596 62.11 35.2796 57.42 45.8496 60.87C45.6696 60.75 45.4896 60.66 45.3096 60.55C44.9196 60.31 44.5396 60.07 44.1396 59.86L43.4596 59.51C43.0696 59.31 42.6896 59.11 42.2896 58.93C41.8896 58.75 41.6496 58.66 41.2896 58.53C40.9296 58.4 40.6596 58.25 40.2896 58.13C39.6396 57.89 38.9696 57.67 38.2896 57.47L32.9496 56.47C32.0396 56.38 31.1196 56.33 30.1896 56.33C22.6443 56.3236 15.3954 59.2662 9.98955 64.53C9.92955 64.53 9.87955 64.64 9.82955 64.69C9.50955 65.01 9.17622 65.3433 8.82955 65.69L8.44955 66.11L7.76955 66.9C7.63955 67.06 7.50955 67.22 7.38955 67.39C7.26955 67.56 6.95955 67.93 6.75955 68.21L6.41955 68.68C6.17955 69.02 5.93955 69.37 5.71955 69.68C5.64955 69.77 5.58955 69.87 5.51955 69.97C5.23955 70.42 4.97955 70.88 4.71955 71.34C4.63955 71.49 4.56955 71.64 4.48955 71.78L4.04955 72.65L3.97955 72.78L3.72955 73.32L3.30955 74.32C3.23955 74.5 3.15955 74.68 3.08955 74.87C2.94955 75.23 2.81955 75.6 2.68955 75.97L2.53955 76.41C2.46955 76.63 2.40955 76.85 2.34955 77.07C2.28955 77.29 2.15955 77.68 2.07955 77.98C2.07955 78.1 2.02955 78.21 1.99955 78.32C1.89955 78.75 1.79955 79.17 1.70955 79.61C1.70955 79.79 1.63955 79.98 1.60955 80.17C1.54289 80.5433 1.48289 80.9133 1.42955 81.28C1.42955 81.48 1.37955 81.68 1.34955 81.88C1.34955 82.27 1.26955 82.66 1.23955 83.05C1.23955 83.23 1.23955 83.41 1.23955 83.59C1.23955 84.15 1.18955 84.73 1.18955 85.3C1.18968 89.8963 2.28233 94.4268 4.37743 98.5179C6.47252 102.609 9.51005 106.143 13.2396 108.83C13.7596 109.2 14.2396 109.56 14.8196 109.89C15.999 110.6 16.9925 111.581 17.7176 112.751C18.4427 113.921 18.8788 115.248 18.9896 116.62C18.9896 116.8 18.9896 116.98 18.9896 117.16C18.9937 119.321 18.2117 121.409 16.7894 123.036C15.367 124.662 13.4015 125.716 11.2596 126C11.9196 126 12.5996 126.07 13.2596 126.07C13.9196 126.07 14.8396 126.07 15.6196 125.98C32.8696 121 32.0496 106.63 26.4596 98.2Z" fill="#FF9C41"/>
<path id="Vector_7" d="M52.1796 104.35C52.9596 104.35 53.7296 104.35 54.4996 104.35C55.3396 104.35 56.1696 104.25 56.9896 104.18C57.8096 104.11 58.6196 104.01 59.4296 103.9H59.4896C59.8896 103.9 60.2796 103.77 60.6796 103.71C48.6496 91.2299 41.2696 89.8199 41.2696 89.8199V90.1799C42.6212 92.1344 43.5724 94.3371 44.0684 96.661C44.5645 98.9849 44.5954 101.384 44.1596 103.72L45.2696 103.89L45.9996 104C46.5296 104.06 47.0696 104.12 47.6096 104.16L48.2996 104.22C49.0196 104.28 49.7396 104.32 50.4596 104.34H50.9996H52.1596L52.1796 104.35Z" fill="#E06B00"/>
</g>
</g>
</g>
<defs>
<linearGradient id="paint0_linear_218_765" x1="39.9996" y1="3.5" x2="60.9996" y2="85" gradientUnits="userSpaceOnUse">
<stop offset="0.171875" stop-color="#3B4E84"/>
<stop offset="1" stop-color="#141927" stop-opacity="0"/>
</linearGradient>
<clipPath id="clip0_218_765">
<rect width="104" height="126" fill="white"/>
</clipPath>
</defs>
</svg>
